<?xml version="1.0" encoding="UTF-8"?>
<svg id="Ebene_2" data-name="Ebene 2" xmlns="http://www.w3.org/2000/svg" viewBox="0 0 747.3 279.92">
  <defs>
    <style>
      .cls-1 {
        font-family: BigCaslon-Medium, 'Big Caslon';
        font-size: 49px;
        font-weight: 500;
      }
    </style>
  </defs>
  <g id="Ebene_1-2" data-name="Ebene 1">
    <path d="M45.6,80.9c12.5-.2,21.9-.5,28.1-1.1,5.3-.5,8.6-3.6,10.1-9.5,1.2-4.7,2-8.4,2.3-11,.1-1,.9-1.7,1.9-1.7h3.8c.9,0,1.7.8,1.7,1.7v.1c-.8,16.6-.6,32.8.6,48.8.1.7-.4,1.4-1.1,1.5l-4.6,1c-.6.1-1.3-.3-1.4-.9v-.1c-.4-2.2-.8-4.5-1.4-6.9-1.4-5.8-2.5-11.3-8.5-13-1.3-.4-4.5-.8-9.4-1.1-7.2-.5-14.7-.7-22.5-.6-.2,0-.4.2-.4.4.1,19.9.2,38.7.2,56.4,0,4.3,2.1,6.4,6.1,6.4,4.9-.1,9.6-.1,14,0,.9,0,1.6.7,1.6,1.6v5.5c0,.9-.7,1.6-1.6,1.6h-.1c-19.9-1-39.8-1-59.8,0-.7,0-1.2-.5-1.3-1.1v-6.5c0-.6.5-1.1,1.1-1.1h0c4.2.1,8,.1,11.2,0,2.1,0,3.8-.3,4.9-.8,1.1-.5,1.9-1.6,2-2.9.2-2.1.3-4.5.4-7,.8-32,.8-73.9.2-125.7,0-4.5-5-5.9-8.7-5.9H1.5c-.8,0-1.5-.7-1.5-1.5h0V1.7C0,.9.6.3,1.4.3h.1c26.2.8,50.8.8,85.5.6,11.6,0,22.4-.3,32.5-.7.3,0,.5.2.6.5l8.9,39.8c.1.5-.2.9-.6,1.1l-4,1.3c-.4.1-.8,0-1-.4-3-5-7.5-11.6-13.5-19.7-4.8-6.4-10.4-11.3-17.3-12.4-3.7-.6-9.1-1-16.1-1.3-3.7-.2-14.1-.4-31.2-.8-.3,0-.5.2-.5.5h0v71.5c.2.3.4.6.8.6h0Z"/>
    <path d="M179,150.1c0,.3.2.5.5.5,18.9.6,36.7.6,53.4.2,14.7-.4,27.6-26.5,32-37.9.2-.6.8-.9,1.4-.7l3.4.8c.7.2,1.1.9.9,1.5l-11,45c0,.1-.2.2-.3.2-31.1-.4-64.1-.6-99-.5-8.4,0-16.4.2-23.9.6-.6,0-1.2-.4-1.2-1.1v-6.5c0-.7.5-1.2,1.2-1.2h0c4.8.1,9.3.1,13.4-.1,8.2-.4,7.4-5.2,7.4-12.5.2-35.6,1-80.1,0-119.7-.1-4.5-.3-9.6-6.3-9.8-3.4-.2-7.5-.2-12.2-.1-1.1,0-1.9-.8-1.9-1.9h0V1.8c0-.9.8-1.7,1.7-1.7h.1c20.4,1,41.1,1,62,0,1-.1,1.9.7,2,1.8v5c0,1.1-.9,2-2,2h-14.9c-4.4,0-6.6,2.3-6.7,6.7-.7,51.8-.8,89.9-.4,114.5.1,9.8.3,16.5.4,20Z"/>
    <path d="M532.5,8.8c-.8,0-1.5-.7-1.5-1.5V1.4c0-.8.6-1.4,1.4-1.4h.1c17.5.9,35,.9,52.5,0,1.1,0,2,.8,2,1.8v.1l-.1,5.4c0,.8-.7,1.5-1.6,1.5h-.2c-.7-.1-3.9-.1-9.5.1-6.1.1-8.5,4.5-9,9.9-.2,2.2-.3,6.1-.3,11.7,0,22.6-.3,45.1-.8,67.5-.4,16.8-2.9,33.1-14,45.9-15.3,17.7-38.9,20.4-61.3,17.7-21.1-2.6-38.1-13.1-42.9-34.9-3.5-16-3.2-32.1-3.4-50.2V18.4c0-4.5-1.3-9.1-6.6-9.5-2.9-.2-7-.2-12.2-.1-.9,0-1.7-.7-1.7-1.7h0V1.8c0-.9.8-1.7,1.7-1.7h.1c20.8,1,41.4,1,62,0,.8,0,1.5.6,1.5,1.4v6c0,.8-.7,1.5-1.5,1.5h0c-6.7-.1-11-.1-12.9.1-3.7.4-6.4,2.1-8.1,5-.8,1.5-1.3,4.7-1.4,9.6-.5,28.9-.2,58.9,1.1,89.9.5,11.2,3.9,22.5,12.1,30,12.4,11.2,32.4,12.5,48.2,7.4,22.5-7.2,27.5-27.3,27.5-48.6,0-18.9,0-37.7-.1-56.2,0-9.8-.3-18.6-.9-26.2-.5-5.7-3.2-10.4-9.6-10.9-.2-.2-3.7-.2-10.6-.3Z"/>
    <path d="M679.6,84.1c-.2,0-.3.2-.2.4,0,.1.1.2.2.2,5.7,2.6,9,7,13.2,12.7,5.7,7.8,12.4,17.4,19.9,28.7,3.2,4.8,7.3,10.4,12.3,16.6,2.3,2.9,4.4,4.9,6.3,5.9,4.2,2.2,9.8,2.8,14.2,2.6,1,0,1.8.7,1.8,1.7v5.4c0,.9-.8,1.7-1.7,1.7h-.1c-11.3-.9-22.8-1-34.6-.1-.7,0-1.3-.2-1.8-.8-11.1-14.1-18.1-29.9-28.4-45.2-6.3-9.3-13.5-21.4-23.3-24.6-5.5-1.8-11.2-2.1-17.2-1-.2,0-.3.2-.3.4-.1,18.1,0,35.7.3,52.8.1,3.4,1.1,8.1,4.6,9.5.2.1.5.2.8.2h14.7c.8,0,1.5.7,1.5,1.5v5.6c0,.9-.7,1.6-1.6,1.6h-.1c-19.5-1-39-1-58.5,0-.7,0-1.2-.5-1.3-1.1v-6.4c0-.7.5-1.2,1.2-1.2h0c5.5.1,8.5.1,8.9.1,6.1-.2,8.9-2.2,9-8.4.5-44.2.5-85.2.2-122.9-.1-6.6-2.4-11.2-9.7-11.1h-7.6c-.8,0-1.5-.7-1.5-1.5h0V1.5c0-.8.6-1.4,1.4-1.4h.1c13.2.7,24.7.9,34.4.7,17-.4,27.8-.6,32.2-.6,6.5,0,13.2.9,20.2,2.9,18.3,5.3,32.1,19.1,31.3,39.2-1,27.6-16.4,36-40.8,41.8ZM640.3,79.9c21.2,3.2,46.3-2.9,55.4-24.7,4.8-11.5,2.7-24.2-4.8-33.8-4.7-6-13.2-10.3-20.5-12.1-5.6-1.3-12-2-19.2-2-6.6,0-11.4,1.2-11.4,8.5v63.5c0,.3.2.5.5.6Z"/>
    <path d="M321,8.5v64.6c0,.3.2.5.5.5h0c10.6-.3,19.6-.7,26.9-1.2,5.5-.4,8.8-2.4,10.6-7.8,1.4-4.4,2.2-8.8,2.4-13.1,0-.8.7-1.4,1.5-1.4h5.5c.8,0,1.5.7,1.5,1.5v.1c-1.1,16.4-.9,32.6.7,48.8.1.9-.5,1.7-1.4,1.9l-4.4,1c-.9.2-1.8-.4-2.1-1.3v-.1c-.7-4.1-1.6-8.1-2.8-12.2-1.5-4.9-5-7.6-10.6-8-8.1-.6-17.3-.9-27.6-1-.3,0-.6.3-.6.6h0c-.1,17.5,0,35.3.6,53.5.2,7.7,3.8,12.8,10.7,15.1,1.5.5,5,1,10.6,1.6,3.3.3,7.7.4,13.3.3,7.2-.2,11.7-.3,13.3-.5,8.2-1,17.5-4.2,23-10.8,6.2-7.3,11.6-14.5,16.3-21.5.4-.6,1.2-.8,1.8-.4l3.9,2.2c.6.4.9,1.1.7,1.8-4.8,13.3-8.8,24.4-12,33.3-1.1,3.2-2.5,4.1-6,4-21.5-.6-51.5-.8-90-.7-10.5,0-19.6.3-27.4.8-.9.1-1.7-.6-1.7-1.5v-5.9c0-.8.6-1.4,1.4-1.4h.1c1.7.1,6.4.1,14-.1,4.5-.1,6.7-2.4,6.7-6.9.2-55.7,0-97-.4-123.7-.1-5.5-1.1-10.8-7.5-11.2-4.5-.3-8.6-.4-12.4-.2-.8,0-1.5-.6-1.5-1.4V1.9c0-.8.6-1.4,1.4-1.4h.1c38.1,1.3,82.1.5,103.4.4,2.6,0,5.8-.1,9.5-.4.7,0,1.3.4,1.5,1l11.6,36.5c.2.5-.1,1.1-.5,1.4l-3.4,2c-.6.3-1.3.2-1.8-.4-3.2-4.3-6.5-8.5-9.9-12.5-7.8-9.3-12.2-14.5-22.1-18-2.9-1-7.2-1.5-12.9-1.5-2.3,0-13.6-.2-33.9-.7-.4-.3-.6-.1-.6.2h0Z"/>
    <text class="cls-1" transform="translate(176.92 244.34)"><tspan x="0" y="0">BADEN-BADEN</tspan></text>
  </g>
</svg>